<svg width="139" height="46" viewBox="0 0 139 46" fill="none" xmlns="http://www.w3.org/2000/svg">
<path d="M18.9728 14.303C18.9728 14.303 22.6135 43.5071 1.00014 43.2705C33.5354 55.9763 30.1253 14.303 30.1253 14.303C30.1253 14.303 38.1833 15.9292 39.8884 4H16.03C16.03 4 -6.20227 4.23058 1.69794 31.5779C1.69794 31.5779 2.70518 14.303 18.9728 14.303Z" fill="#502632"/>
<path d="M43.0073 32.0144C43.1893 32.0751 43.3774 32.1115 43.5655 32.1297C43.7475 32.1479 43.9356 32.154 44.1177 32.154C44.5788 32.154 45.0278 32.0933 45.4526 31.9659C45.8773 31.8385 46.2839 31.6564 46.6601 31.4198C47.0363 31.1832 47.37 30.8919 47.6673 30.5521C47.9646 30.2123 48.2013 29.8301 48.3894 29.4174L51.8541 32.9003C51.4172 33.5253 50.9075 34.0835 50.3371 34.5811C49.7668 35.0787 49.1478 35.4973 48.4804 35.8493C47.8129 36.1951 47.1151 36.456 46.381 36.6381C45.6468 36.814 44.8944 36.905 44.1177 36.905C42.8131 36.905 41.5814 36.6623 40.4346 36.1769C39.2817 35.6915 38.2805 35.018 37.4189 34.1503C36.5573 33.2826 35.8777 32.2511 35.3801 31.0557C34.8826 29.8604 34.6338 28.5437 34.6338 27.1117C34.6338 25.6797 34.8826 24.3023 35.3801 23.0888C35.8777 21.8752 36.5573 20.8376 37.4189 19.9821C38.2805 19.1265 39.2878 18.4652 40.4346 17.9858C41.5814 17.5065 42.8131 17.2759 44.1177 17.2759C44.8944 17.2759 45.6467 17.3669 46.387 17.555C47.1273 17.737 47.8311 18.004 48.4925 18.3499C49.1539 18.6957 49.7789 19.1205 50.3553 19.6241C50.9318 20.1277 51.4415 20.692 51.8783 21.317L43.0012 32.0144H43.0073ZM45.4344 22.2514C45.2159 22.1726 44.9975 22.1179 44.7851 22.0937C44.5728 22.0694 44.3483 22.0573 44.1177 22.0573C43.4684 22.0573 42.8617 22.1786 42.2913 22.4153C41.7209 22.6519 41.2234 22.9917 40.7986 23.4286C40.3739 23.8655 40.0462 24.3994 39.8035 25.0183C39.5608 25.6372 39.4394 26.335 39.4394 27.1056C39.4394 27.2816 39.4455 27.4758 39.4637 27.6942C39.4819 27.9126 39.5123 28.1372 39.5487 28.3617C39.5911 28.5862 39.6397 28.8046 39.6943 29.0109C39.7489 29.2172 39.8278 29.4053 39.9188 29.5631L45.4344 22.2454V22.2514Z" fill="#502632"/>
<path d="M77.8782 36.5595H73.1635V24.7698C73.1635 24.4482 73.1028 24.1388 72.9815 23.8536C72.8601 23.5623 72.6902 23.3136 72.4718 23.089C72.2534 22.8706 71.9985 22.7007 71.7073 22.5794C71.416 22.458 71.1126 22.3973 70.791 22.3973C70.4694 22.3973 70.1661 22.458 69.8809 22.5794C69.5957 22.7007 69.3469 22.8706 69.1345 23.089C68.9222 23.3075 68.7523 23.5623 68.6309 23.8536C68.5096 24.1448 68.4489 24.4482 68.4489 24.7698V36.5595H63.716V24.7698C63.716 24.4482 63.6554 24.1388 63.534 23.8536C63.4127 23.5623 63.2428 23.3136 63.0243 23.089C62.8059 22.8706 62.551 22.7007 62.2598 22.5794C61.9685 22.458 61.6651 22.3973 61.3435 22.3973C61.022 22.3973 60.7186 22.458 60.4334 22.5794C60.1482 22.7007 59.8994 22.8706 59.6871 23.089C59.4747 23.3075 59.3048 23.5623 59.1834 23.8536C59.0621 24.1448 59.0014 24.4482 59.0014 24.7698V36.5595H54.2686V17.9861H55.4154L56.7017 19.4059C57.3631 18.8538 58.0852 18.4229 58.88 18.1135C59.6749 17.804 60.4941 17.6523 61.3496 17.6523C62.2052 17.6523 63.0607 17.8162 63.892 18.1378C64.7233 18.4594 65.4453 19.0237 66.0703 19.8185C66.3616 19.4241 66.6892 19.0904 67.0594 18.8113C67.4295 18.5322 67.8178 18.3077 68.2304 18.1378C68.643 17.9618 69.0678 17.8404 69.5047 17.7676C69.9416 17.6948 70.3784 17.6523 70.8032 17.6523C71.7861 17.6523 72.7084 17.8344 73.5701 18.2045C74.4317 18.5746 75.1841 19.0783 75.8212 19.7214C76.4644 20.3646 76.968 21.117 77.3381 21.9847C77.7083 22.8524 77.8964 23.7747 77.8964 24.7577V36.5473L77.8782 36.5595Z" fill="#502632"/>
<path d="M86.0944 43.6342H81.3252V17.9919H82.472L84.3651 20.2309C84.7959 19.8243 85.2632 19.4421 85.7668 19.0841C86.2765 18.7261 86.8044 18.4166 87.3565 18.1557C87.9026 17.8948 88.473 17.6885 89.0616 17.5429C89.6501 17.3912 90.2448 17.3184 90.8455 17.3184C92.1501 17.3184 93.3818 17.555 94.5286 18.0222C95.6815 18.4894 96.6827 19.1508 97.5443 20.0064C98.4059 20.8619 99.0855 21.8934 99.583 23.1009C100.081 24.3084 100.329 25.6494 100.329 27.1178C100.329 28.5862 100.081 30.0182 99.583 31.2378C99.0855 32.4574 98.4059 33.4889 97.5443 34.3445C96.6827 35.2 95.6754 35.8432 94.5286 36.2922C93.3757 36.7412 92.1501 36.9657 90.8455 36.9657C90.4268 36.9657 90.0142 36.9172 89.6077 36.8262C89.1951 36.7352 88.7946 36.6077 88.3941 36.456C87.9936 36.2983 87.5993 36.1223 87.217 35.9281C86.8286 35.734 86.4585 35.5277 86.1005 35.3214V43.6463L86.0944 43.6342ZM95.5783 27.1117C95.5783 26.3229 95.4509 25.619 95.2082 24.9941C94.9594 24.3691 94.6196 23.8412 94.1949 23.4043C93.7641 22.9735 93.2665 22.6398 92.684 22.4092C92.1076 22.1786 91.4947 22.0633 90.8455 22.0633C90.1962 22.0633 89.5895 22.1786 89.0191 22.4092C88.4487 22.6398 87.9451 22.9735 87.5204 23.4043C87.0896 23.8351 86.7558 24.3691 86.5071 24.9941C86.2583 25.619 86.1369 26.3229 86.1369 27.1117C86.1369 27.9005 86.2583 28.5498 86.5071 29.1747C86.7558 29.7997 87.0956 30.3337 87.5204 30.7706C87.9451 31.2074 88.4487 31.5533 89.0191 31.796C89.5895 32.0387 90.2023 32.1601 90.8455 32.1601C91.4887 32.1601 92.1076 32.0387 92.684 31.796C93.2605 31.5533 93.7641 31.2135 94.1949 30.7706C94.6196 30.3337 94.9594 29.7997 95.2082 29.1747C95.457 28.5498 95.5783 27.8641 95.5783 27.1117Z" fill="#502632"/>
<path d="M116.597 34.3933C116.215 34.7392 115.808 35.0668 115.377 35.3763C114.947 35.6797 114.492 35.9467 114.018 36.1712C113.545 36.3957 113.054 36.5777 112.55 36.7112C112.046 36.8447 111.537 36.9114 111.015 36.9114C109.868 36.9114 108.794 36.7112 107.787 36.3047C106.779 35.8981 105.9 35.3277 105.141 34.5814C104.383 33.8351 103.788 32.931 103.357 31.857C102.926 30.7891 102.708 29.5877 102.708 28.2588V17.9922H107.423V28.2588C107.423 28.8838 107.52 29.442 107.708 29.9335C107.896 30.425 108.157 30.8376 108.478 31.1713C108.8 31.5051 109.182 31.7599 109.613 31.9359C110.044 32.1118 110.511 32.1968 111.009 32.1968C111.506 32.1968 111.955 32.0815 112.386 31.857C112.817 31.6325 113.199 31.3352 113.521 30.965C113.842 30.5949 114.097 30.1762 114.285 29.709C114.473 29.2418 114.564 28.7564 114.564 28.2588V17.9922H119.297V36.5656H118.15L116.591 34.3994L116.597 34.3933Z" fill="#502632"/>
<path d="M133.107 36.5594H122.288V31.8448H133.107C133.429 31.8448 133.708 31.7295 133.938 31.4989C134.169 31.2684 134.284 30.9892 134.284 30.6676C134.284 30.3461 134.169 30.1094 133.938 30.0063C133.708 29.9031 133.429 29.8485 133.107 29.8485H128.18C127.361 29.8485 126.59 29.6907 125.874 29.3813C125.158 29.0718 124.533 28.6471 123.999 28.1071C123.465 27.567 123.047 26.9421 122.743 26.2261C122.44 25.5101 122.282 24.7395 122.282 23.9203C122.282 23.1012 122.434 22.3306 122.743 21.6146C123.047 20.8986 123.472 20.2736 123.999 19.7396C124.527 19.2057 125.152 18.787 125.874 18.4836C126.59 18.1802 127.361 18.0225 128.18 18.0225H137.767V22.7371H128.18C127.858 22.7371 127.579 22.8524 127.349 23.083C127.118 23.3135 127.003 23.5927 127.003 23.9142C127.003 24.2358 127.118 24.5332 127.349 24.7698C127.579 25.0064 127.858 25.1278 128.18 25.1278H133.107C133.914 25.1278 134.679 25.2613 135.395 25.5343C136.111 25.8074 136.736 26.1836 137.27 26.669C137.804 27.1544 138.222 27.7369 138.538 28.4226C138.847 29.1022 139.005 29.8485 139.005 30.6616C139.005 31.4747 138.847 32.2453 138.538 32.9613C138.228 33.6712 137.804 34.2962 137.27 34.8362C136.736 35.3762 136.111 35.7949 135.395 36.1044C134.679 36.4138 133.914 36.5655 133.107 36.5655V36.5594Z" fill="#502632"/>
<path d="M73.5391 12.3999H67.7793V3.99756H73.5391V5.6792H69.4609V7.36084H72.2207V9.04248H69.4609V10.7183H73.5391V12.3999ZM76.1465 12.3999H74.5469V6.12451H74.9336L75.4609 6.73389C75.7188 6.49951 76.0098 6.31982 76.334 6.19482C76.6621 6.06592 77.0039 6.00146 77.3594 6.00146C77.7422 6.00146 78.1035 6.07568 78.4434 6.22412C78.7832 6.36865 79.0801 6.56982 79.334 6.82764C79.5879 7.08154 79.7871 7.38037 79.9316 7.72412C80.0801 8.06396 80.1543 8.42725 80.1543 8.81396V12.3999H78.5547V8.81396C78.5547 8.6499 78.5234 8.49561 78.4609 8.35107C78.3984 8.20264 78.3125 8.07373 78.2031 7.96436C78.0938 7.85498 77.9668 7.76904 77.8223 7.70654C77.6777 7.64404 77.5234 7.61279 77.3594 7.61279C77.1914 7.61279 77.0332 7.64404 76.8848 7.70654C76.7363 7.76904 76.6074 7.85498 76.498 7.96436C76.3887 8.07373 76.3027 8.20264 76.2402 8.35107C76.1777 8.49561 76.1465 8.6499 76.1465 8.81396V12.3999ZM85.7617 9.20654C85.7617 8.98779 85.7188 8.77686 85.6328 8.57373C85.5508 8.3667 85.4375 8.18506 85.293 8.02881C85.1484 7.86865 84.9785 7.7417 84.7832 7.64795C84.5918 7.55029 84.3867 7.50146 84.168 7.50146C83.9492 7.50146 83.7422 7.53857 83.5469 7.61279C83.3555 7.68701 83.1875 7.79639 83.043 7.94092C82.9023 8.08545 82.791 8.26514 82.709 8.47998C82.627 8.69092 82.5859 8.93311 82.5859 9.20654C82.5859 9.46826 82.627 9.70459 82.709 9.91553C82.791 10.1226 82.9023 10.3003 83.043 10.4487C83.1875 10.5972 83.3555 10.7124 83.5469 10.7944C83.7422 10.8726 83.9492 10.9116 84.168 10.9116C84.3867 10.9116 84.5918 10.8647 84.7832 10.771C84.9785 10.6733 85.1484 10.5464 85.293 10.3901C85.4375 10.23 85.5508 10.0483 85.6328 9.84521C85.7188 9.63818 85.7617 9.42529 85.7617 9.20654ZM87.373 11.6089C87.373 12.0503 87.2891 12.4644 87.1211 12.8511C86.9531 13.2378 86.7227 13.5757 86.4297 13.8647C86.1406 14.1538 85.8008 14.3823 85.4102 14.5503C85.0234 14.7183 84.6094 14.8022 84.168 14.8022L83.3652 14.7905V13.1909L84.1562 13.2026C84.4062 13.2026 84.6191 13.1694 84.7949 13.103C84.9707 13.0405 85.1191 12.9526 85.2402 12.8394C85.3613 12.73 85.457 12.603 85.5273 12.4585C85.6016 12.314 85.6602 12.1616 85.7031 12.0015C85.6406 12.103 85.5508 12.187 85.4336 12.2534C85.3164 12.3159 85.1855 12.3667 85.041 12.4058C84.9004 12.4487 84.752 12.478 84.5957 12.4937C84.4434 12.5093 84.3008 12.5171 84.168 12.5171C83.7266 12.5171 83.3105 12.4409 82.9199 12.2886C82.5332 12.1362 82.1934 11.9194 81.9004 11.6382C81.6113 11.353 81.3828 11.0054 81.2148 10.5952C81.0469 10.1851 80.9629 9.72217 80.9629 9.20654C80.9629 8.73389 81.0469 8.29443 81.2148 7.88818C81.3828 7.48193 81.6113 7.13037 81.9004 6.8335C82.1934 6.53662 82.5332 6.3042 82.9199 6.13623C83.3105 5.96826 83.7266 5.88428 84.168 5.88428C84.3711 5.88428 84.5723 5.90967 84.7715 5.96045C84.9707 6.01123 85.1641 6.08154 85.3516 6.17139C85.5391 6.26123 85.7168 6.3667 85.8848 6.48779C86.0566 6.60889 86.2168 6.73975 86.3652 6.88037L86.9863 6.13623H87.373V11.6089ZM90.209 12.3999H88.5977V3.62842H90.209V12.3999ZM93.3203 4.41943C93.3203 4.56787 93.291 4.70654 93.2324 4.83545C93.1777 4.96436 93.1016 5.07764 93.0039 5.17529C92.9062 5.26904 92.791 5.34521 92.6582 5.40381C92.5293 5.4585 92.3906 5.48584 92.2422 5.48584C92.0938 5.48584 91.9531 5.4585 91.8203 5.40381C91.6914 5.34521 91.5781 5.26904 91.4805 5.17529C91.3867 5.07764 91.3105 4.96436 91.252 4.83545C91.1973 4.70654 91.1699 4.56787 91.1699 4.41943C91.1699 4.2749 91.1973 4.13818 91.252 4.00928C91.3105 3.87646 91.3867 3.76318 91.4805 3.66943C91.5781 3.57178 91.6914 3.49561 91.8203 3.44092C91.9531 3.38232 92.0938 3.35303 92.2422 3.35303C92.3906 3.35303 92.5293 3.38232 92.6582 3.44092C92.791 3.49561 92.9062 3.57178 93.0039 3.66943C93.1016 3.76318 93.1777 3.87646 93.2324 4.00928C93.291 4.13818 93.3203 4.2749 93.3203 4.41943ZM93.0449 12.3999H91.4336V6.12451H93.0449V12.3999ZM97.7148 12.3999H94.0586V10.8062H97.7148C97.8242 10.8062 97.918 10.7671 97.9961 10.689C98.0742 10.6108 98.1133 10.5171 98.1133 10.4077C98.1133 10.2944 98.0742 10.2202 97.9961 10.1851C97.918 10.1499 97.8242 10.1323 97.7148 10.1323H96.0508C95.7734 10.1323 95.5137 10.0796 95.2715 9.97412C95.0293 9.86865 94.8184 9.72607 94.6387 9.54639C94.459 9.36279 94.3164 9.1499 94.2109 8.90771C94.1094 8.66553 94.0586 8.40576 94.0586 8.12842C94.0586 7.85107 94.1094 7.59131 94.2109 7.34912C94.3164 7.10693 94.459 6.896 94.6387 6.71631C94.8184 6.53662 95.0293 6.396 95.2715 6.29443C95.5137 6.18896 95.7734 6.13623 96.0508 6.13623H99.291V7.72998H96.0508C95.9414 7.72998 95.8477 7.76904 95.7695 7.84717C95.6914 7.92529 95.6523 8.01904 95.6523 8.12842C95.6523 8.2417 95.6914 8.33936 95.7695 8.42139C95.8477 8.49951 95.9414 8.53857 96.0508 8.53857H97.7148C97.9883 8.53857 98.2461 8.58545 98.4883 8.6792C98.7305 8.76904 98.9414 8.896 99.1211 9.06006C99.3008 9.22412 99.4434 9.42139 99.5488 9.65186C99.6543 9.88232 99.707 10.1343 99.707 10.4077C99.707 10.6851 99.6543 10.9448 99.5488 11.187C99.4434 11.4253 99.3008 11.6362 99.1211 11.8198C98.9414 11.9995 98.7305 12.1421 98.4883 12.2476C98.2461 12.3491 97.9883 12.3999 97.7148 12.3999ZM102.162 12.3999H100.562V3.62842H102.162V6.3999C102.354 6.25537 102.551 6.15381 102.754 6.09521C102.957 6.03271 103.164 6.00146 103.375 6.00146C103.762 6.00146 104.125 6.07568 104.465 6.22412C104.805 6.36865 105.1 6.56982 105.35 6.82764C105.604 7.08154 105.803 7.38037 105.947 7.72412C106.096 8.06396 106.17 8.42725 106.17 8.81396V12.3999H104.559V8.81396H104.57C104.57 8.6499 104.539 8.49561 104.477 8.35107C104.414 8.20264 104.328 8.07373 104.219 7.96436C104.109 7.85498 103.982 7.76904 103.838 7.70654C103.693 7.64404 103.539 7.61279 103.375 7.61279C103.207 7.61279 103.049 7.64404 102.9 7.70654C102.752 7.76904 102.623 7.85498 102.514 7.96436C102.404 8.07373 102.318 8.20264 102.256 8.35107C102.193 8.49561 102.162 8.6499 102.162 8.81396V12.3999Z" fill="#502632" fill-opacity="0.7"/>
</svg>
